<svg id="Layer_1" data-name="Layer 1" xmlns="http://www.w3.org/2000/svg" viewBox="0 0 560 568"><defs><style>.cls-1{fill:#dd405b;}.cls-2{fill:#e55c6f;}.cls-3{fill:#f97d89;}.cls-4{fill:#fff;}</style></defs><title>logo</title><polygon class="cls-1" points="467.77 372.58 96.33 372.58 282.05 33.49 467.77 372.58"/><polygon class="cls-2" points="282.05 33.49 282.05 264.5 96.33 372.58 282.05 33.49"/><polygon class="cls-3" points="282.05 33.49 282.05 264.5 467.77 372.58 282.05 33.49"/><path class="cls-4" d="M327,189.16v26.67a45,45,0,0,1-30.77,42.6V163.31a10.65,10.65,0,0,1,10.65-10.65v-7H255.38v7h1.87a10.65,10.65,0,0,1,10.65,10.65v95.13a45,45,0,0,1-30.77-42.6V189.16a43.57,43.57,0,0,0-43.52-43.52v7.49c8.52,0,15.44,15,15.44,23.51v39.19a73.1,73.1,0,0,0,58.84,71.59v78.26a10.65,10.65,0,0,1-10.65,10.65h-1.87v7h51.47v-7a10.65,10.65,0,0,1-10.65-10.65V287.43A73.1,73.1,0,0,0,355,215.83V176.65c0-8.52,6.93-23.51,15.44-23.51v-7.49A43.57,43.57,0,0,0,327,189.16Z"/><path class="cls-1" d="M92.78,426.33v18H82.45V393.15H99.88q7.59,0,12.11,4.71t4.52,12.23q0,7.52-4.46,11.88t-12.38,4.36Zm0-8.61h7.1a5.63,5.63,0,0,0,4.57-1.93,8.56,8.56,0,0,0,1.62-5.62,10.15,10.15,0,0,0-1.65-6.1,5.3,5.3,0,0,0-4.43-2.3H92.78Z"/><path class="cls-1" d="M139.75,434.14a3.11,3.11,0,0,0-1.21-2.34,24,24,0,0,0-5.4-2.9q-6.15-2.5-8.46-5.17a9.82,9.82,0,0,1-2.3-6.64,10.62,10.62,0,0,1,3.6-8.24,13.7,13.7,0,0,1,9.54-3.25q6.26,0,10,3.23a10.87,10.87,0,0,1,3.76,8.68h-9.95q0-4.64-3.87-4.64a3.59,3.59,0,0,0-2.6,1,3.63,3.63,0,0,0-1,2.74,2.88,2.88,0,0,0,1.13,2.23,24.74,24.74,0,0,0,5.31,2.76q6.08,2.25,8.6,5a10.21,10.21,0,0,1,2.51,7.15,10,10,0,0,1-3.83,8.19Q141.75,445,135.53,445a16,16,0,0,1-7.38-1.63,12.4,12.4,0,0,1-5-4.55,11.72,11.72,0,0,1-1.81-6.29h9.46a6,6,0,0,0,1.21,3.9,4.75,4.75,0,0,0,3.74,1.3Q139.75,437.76,139.75,434.14Z"/><path class="cls-1" d="M155.61,396.45a5.14,5.14,0,0,1,1.48-3.8,6,6,0,0,1,7.88,0,5.14,5.14,0,0,1,1.48,3.8,5.41,5.41,0,1,1-10.83,0ZM166,444.33h-10v-38h10Z"/><path class="cls-1" d="M183.45,409.63a9.83,9.83,0,0,1,7.95-4,9.23,9.23,0,0,1,7.91,3.66q2.71,3.66,2.74,10.9v24.19h-10V420.25a8.68,8.68,0,0,0-1-4.83,3.8,3.8,0,0,0-3.36-1.49,4.7,4.7,0,0,0-4.22,2.5v27.91H173.5v-54h9.95Z"/><path class="cls-1" d="M208,424.08q0-8.65,4.08-13.57t11.29-4.92q7.28,0,11.36,4.92t4.08,13.64v2.43q0,8.68-4,13.57T223.46,445q-7.31,0-11.37-4.9T208,426.51Zm10,2.5q0,10.2,5.45,10.2,5,0,5.41-8.51l0-4.18q0-5.2-1.44-7.72a4.49,4.49,0,0,0-4.08-2.51,4.38,4.38,0,0,0-4,2.51q-1.42,2.51-1.42,7.72Z"/><path class="cls-1" d="M256.58,396.94v9.35h5.1v7.45h-5.1v18.91a5.58,5.58,0,0,0,.62,3.1,2.78,2.78,0,0,0,2.37.84,9.3,9.3,0,0,0,2.36-.25l-.07,7.73a15.5,15.5,0,0,1-5.48.95q-9.63,0-9.74-11.05V413.75h-4.39v-7.45h4.39v-9.35Z"/><path class="cls-1" d="M282.49,445q-7.66,0-12-4.57t-4.29-13.08v-3q0-9,3.94-13.89t11.29-4.89q7.17,0,10.79,4.58T296,423.74v4.88H276.16q.21,4.24,1.86,6.2a6.3,6.3,0,0,0,5.1,2,11.19,11.19,0,0,0,8.33-3.41l3.9,6a12.85,12.85,0,0,1-5.31,4.1A18.22,18.22,0,0,1,282.49,445Zm-6.26-23.34h9.95v-.91a10.63,10.63,0,0,0-1.12-5.17,3.91,3.91,0,0,0-3.66-1.76,4.14,4.14,0,0,0-3.78,1.86A12.83,12.83,0,0,0,276.23,421.69Z"/><path class="cls-1" d="M320.35,415.89l-3.3-.28a5.43,5.43,0,0,0-5.52,3.59v25.14h-10v-38h9.39l.28,4.11q2.36-4.82,6.5-4.82a7,7,0,0,1,2.74.46Z"/><path class="cls-1" d="M342.46,444.33a13.9,13.9,0,0,1-.84-3,8.5,8.5,0,0,1-7.24,3.66,10.72,10.72,0,0,1-7.93-3.16,11.12,11.12,0,0,1-3.15-8.19q0-6,3.81-9.25t11-3.34h3V418a5.73,5.73,0,0,0-.88-3.62,3.15,3.15,0,0,0-2.57-1.05q-3.73,0-3.73,4.36H324a11,11,0,0,1,4-8.7,14.72,14.72,0,0,1,10-3.43q6.26,0,9.69,3.25t3.43,9.3V436a18.72,18.72,0,0,0,1.41,7.7v.6Zm-5.87-7.1a5.55,5.55,0,0,0,2.81-.67,4.73,4.73,0,0,0,1.72-1.58v-7.91h-2.39a5.1,5.1,0,0,0-4,1.62,6.21,6.21,0,0,0-1.46,4.32Q333.29,437.23,336.59,437.23Z"/><path class="cls-1" d="M387.92,426.51q0,9-3.08,13.75a10.18,10.18,0,0,1-9.16,4.78,8.86,8.86,0,0,1-7.45-3.76V459h-9.95V406.29h9.21l.35,3.48a8.93,8.93,0,0,1,7.77-4.18q6.08,0,9.16,4.43t3.15,13.57ZM378,424q0-5.52-1.21-7.8a4.26,4.26,0,0,0-4.1-2.29,4.73,4.73,0,0,0-4.46,2.57v17.82a4.74,4.74,0,0,0,4.54,2.46,4.12,4.12,0,0,0,4.1-2.5q1.14-2.5,1.14-7.77Z"/><path class="cls-1" d="M409.29,445q-7.66,0-12-4.57t-4.29-13.08v-3q0-9,3.94-13.89t11.29-4.89q7.17,0,10.79,4.58t3.69,13.57v4.88H403q.21,4.24,1.86,6.2a6.3,6.3,0,0,0,5.1,2,11.19,11.19,0,0,0,8.33-3.41l3.9,6a12.85,12.85,0,0,1-5.31,4.1A18.22,18.22,0,0,1,409.29,445ZM403,421.69H413v-.91a10.63,10.63,0,0,0-1.12-5.17,3.91,3.91,0,0,0-3.66-1.76,4.14,4.14,0,0,0-3.78,1.86A12.83,12.83,0,0,0,403,421.69Z"/><path class="cls-1" d="M447.09,440.85a9.8,9.8,0,0,1-8.3,4.18q-5.24,0-7.95-3.6t-2.71-10.49V406.29h9.95v24.89q.07,5.55,3.69,5.55a5.13,5.13,0,0,0,4.92-3V406.29h10v38h-9.35Z"/><path class="cls-1" d="M475.39,396.94v9.35h5.1v7.45h-5.1v18.91a5.58,5.58,0,0,0,.62,3.1,2.78,2.78,0,0,0,2.37.84,9.3,9.3,0,0,0,2.36-.25l-.07,7.73a15.5,15.5,0,0,1-5.48.95q-9.63,0-9.74-11.05V413.75H461v-7.45h4.39v-9.35Z"/><path class="cls-1" d="M185.95,495.49a18.83,18.83,0,0,1,8.1-9.33,21.7,21.7,0,0,1,11.15-3.44,17.8,17.8,0,0,1,9.33,2.36,16,16,0,0,1,2.06-.1q10,0,14.73,6a6.33,6.33,0,0,1,2.26-1.08c.65-.13,1-.06,1.08.2a1.24,1.24,0,0,1-1,.88,5.59,5.59,0,0,0-1.77.88q3.44,5.11,3.44,13.6t-4.22,21a30.42,30.42,0,0,1,3,.79l1.28-2.26q9.43-15.52,14.34-22.1,12.57-16.5,21.7-16.5a4.57,4.57,0,0,1,3.78,1.82,6.46,6.46,0,0,1,1.42,4.08c0,1-.12,1.61-.34,1.67s-.38-.06-.44-.39l-.1-.29q0-4.32-4.52-4.32a12.62,12.62,0,0,0-4.67,1.33,29,29,0,0,0-7.46,5.6,75.72,75.72,0,0,0-8.59,9.87q-6.88,9.23-10.75,15.37t-4.27,6.73q8.45,3.44,8.45,9.72a12.47,12.47,0,0,1-.69,3.93.47.47,0,0,1-.34.25.37.37,0,0,1-.39-.15q-.15-.2.25-1.28a9.31,9.31,0,0,0,.39-3A7.09,7.09,0,0,0,242,533.4a13.15,13.15,0,0,0-6.87-5q-8,11.89-10.12,11.88-.59,0-.39-.59a109.1,109.1,0,0,0,4.13-12.87q-1-.2-2.95-.39a35.68,35.68,0,0,1-7.17,13.8,28.87,28.87,0,0,1-9.48,7.66A20.38,20.38,0,0,1,201,550q-7.07,0-8.84-4.62a17.1,17.1,0,0,1-2.16.1,21.75,21.75,0,0,1-3.14-.25,8.06,8.06,0,0,1-3.34-1.37,3.31,3.31,0,0,1-1.67-2.8c0-1.12.39-1.77,1.18-2,.39-.07.6,0,.64.2a.54.54,0,0,1-.15.49,1.63,1.63,0,0,0,.29,2.36,9,9,0,0,0,6.28,2.06,13.71,13.71,0,0,0,1.67-.1,7.1,7.1,0,0,1-.1-1.18q0-3.73,3.83-8.15,4.91-5.69,15.62-8.25,1.57-2.95,4.32-9.63a133.18,133.18,0,0,1,9-18.17q-2.65-8.25-8.84-12.18a16.12,16.12,0,0,0-2.06-.1q-6.78,0-13.85,5.3-9.53,7.07-11.88,17.68,2.95,5.8,8.74,5.79h.29a12.88,12.88,0,0,0,7.47-2.46q3.53-2.45,3.93-5.79a.31.31,0,0,1,.2-.29.35.35,0,0,1,.39,0,.43.43,0,0,1,.2.34q-.4,3.64-4.22,6.29a13.79,13.79,0,0,1-8,2.65h-.29a10.72,10.72,0,0,1-8.94-4.52,15.89,15.89,0,0,0-.1,1.77,12.77,12.77,0,0,0,2.06,7.17q2.06,3.14,7,3.14a14,14,0,0,0,8.35-2.41,19.88,19.88,0,0,0,4.47-3.93q1.08-1.52,1.18-1.08a1.57,1.57,0,0,1-.2,1q-1.08,2.65-5.7,5.65a16.37,16.37,0,0,1-8.89,3,12.82,12.82,0,0,1-6.92-1.67q-4.62-3.14-4.62-10.31a22.78,22.78,0,0,1,1.08-6.87,18.37,18.37,0,0,1-.69-5.16A18.9,18.9,0,0,1,185.95,495.49Zm27-10.31a22.08,22.08,0,0,0-8.54-1.67,18.4,18.4,0,0,0-9.48,3,16.1,16.1,0,0,0-6.83,7.37,21.16,21.16,0,0,0-1.87,8.3c0,.72,0,1.44.1,2.16l.88-1.77a35.57,35.57,0,0,1,11-11.59A33.59,33.59,0,0,1,213,485.18ZM193.22,543a3.56,3.56,0,0,0,.1.88q9.52-1.87,17.09-16-9.23,2.26-13.21,6.92T193.22,543Zm.49,2.16q1.57,4.12,7.37,4.13a17,17,0,0,0,6.87-1.67,26.92,26.92,0,0,0,10.41-8.49,38.07,38.07,0,0,0,6.19-12.72q-1.18-.1-3.39-.1a34.82,34.82,0,0,0-5.65.59Q206.87,543.32,193.71,545.19Zm31.13-19.64a50,50,0,0,0,1.47-12.18,54.59,54.59,0,0,0-1-11q-1.47,3.34-4.13,10.56t-3.83,9.87l-1.28,2.95a37.22,37.22,0,0,1,4.62-.29Q223,525.45,224.84,525.55Zm.69-28.48a38.17,38.17,0,0,1,2.46-3.24,14.61,14.61,0,0,0-10.51-7.07A21.53,21.53,0,0,1,225.53,497.06Zm1,2.85A40,40,0,0,1,228,511.21a62.57,62.57,0,0,1-2,14.44l2.95.29a75.86,75.86,0,0,0,2.36-17.48,30.78,30.78,0,0,0-2.46-13Q227.69,497.46,226.51,499.91Zm7.27,28-2.85-.79A86.43,86.43,0,0,1,226,539Q228.08,538,233.78,527.9ZM266,496.08q.49,0,.49.59a.52.52,0,0,1-.59.59h-.2q-2.85,0-5.5,4.91-4.32,8.05-6.68,24.55a65.16,65.16,0,0,0-.69,6.68q0,8.64,4.42,8.64a6.45,6.45,0,0,0,3.24-1.28,15.26,15.26,0,0,0,4.13-4.71c.33-.52.62-.7.88-.54s.26.51,0,1a13.31,13.31,0,0,1-6.29,6.29,7.89,7.89,0,0,1-3.68,1,6.41,6.41,0,0,1-3.59-1.18q-3.24-2.06-3.34-8.15,0-8.64,4.12-22.39a35.38,35.38,0,0,1,5.4-11.39q3.44-4.62,7.37-4.62Z"/><path class="cls-1" d="M272.08,524.76a32.64,32.64,0,0,0-4,6.68,12.6,12.6,0,0,0-1.18,4.22q0,1.38.88,1.38,2.65,0,10.7-11.79,3.14-4,3.14.1-.2,2.56-.2,4.32,0,7.47,3.14,7.46,3.34,0,8.15-5.4c.2-.2.43-.06.69.39a10.67,10.67,0,0,1-2,2.41,18.15,18.15,0,0,1-4.27,3.09,9.31,9.31,0,0,1-3.88,1.38,6.16,6.16,0,0,1-2.11-.29q-3.64-1.28-3.63-10-3.93,6.19-5.7,7.86-2.75,2.56-4.52,2.55H267q-3.24-.49-3.24-4.37a18.89,18.89,0,0,1,2.5-8.64,32,32,0,0,1,6.63-8.59q4.12-3.83,8.25-3.83a8.14,8.14,0,0,1,3.83,1,3.33,3.33,0,0,1,1.67,3.09,2.11,2.11,0,0,1-1.87,2.41,4.42,4.42,0,0,0,.69-2.21,1.61,1.61,0,0,0-1-1.52,4,4,0,0,0-1.77-.49Q278.46,515.92,272.08,524.76Z"/><path class="cls-1" d="M308.22,519.85a3.49,3.49,0,0,0-2.65-1.67q-3.93,0-9.53,8.64a42.61,42.61,0,0,0-4.91,11.29.8.8,0,0,1-.88.79c-.59,0-.88-.26-.88-.79l1.47-10.41q1-7.86,1.08-9.87t2.65-2.8a6.69,6.69,0,0,1,1.62-.2.86.86,0,0,1,.93.88,2.37,2.37,0,0,1-.1.64q-.1.34-1.42,5.2t-1.72,5.74a42.84,42.84,0,0,1,6-8q3.63-3.88,5.6-3.88h.1q2.65,0,3.44,3.24a5.68,5.68,0,0,1,.2,1.33c0,.36-.1.54-.29.54S308.48,520.37,308.22,519.85Z"/><path class="cls-1" d="M311.27,533.5q0,2.95,1.77,2.95,1,0,4.86-3.19t4.17-3.49q.29-.3.49-.15a.4.4,0,0,1,.2.29.8.8,0,0,1-.1.34q-1.47,2.46-6.19,5.89-3.14,2.56-5.3,2.55-3.34,0-3.34-5.7,0-1.08.2-3.09t3.14-12.42q.2-.79,2.21-.79t2,1.13a8.33,8.33,0,0,1-.74,2.95q-.74,1.82-1.72,2-.49.1-1.08,4.91T311.27,533.5Zm7.56-24.95c.46,0,.69.15.69.44s-.39.9-1.18,1.82q-2.56,3.15-5,1.18-.39-.3-.1-.59Q316.67,508.56,318.83,508.55Z"/><path class="cls-1" d="M345.93,536.64q0,2.26-3.83,4a6.92,6.92,0,0,1-2.75.59q-3.15-.29-4.08-2.21a7.77,7.77,0,0,1-.93-3.29,30,30,0,0,1,.2-3.19q.2-1.82.74-4.42a50.74,50.74,0,0,1,1.38-5.21q.83-2.6.83-2.7-.88,1.18-3.93,4.71-7.86,8.74-8.59,10.8a4.29,4.29,0,0,1-2.9,2.75q-1.18.39-1.18-.49,0-.2.69-2.85A55.14,55.14,0,0,0,323.74,522l-.1-2.65q0-1.67,2.26-2.75a4,4,0,0,1,1.77-.49q1.37,0,1.08,1.33t-1,5a85.5,85.5,0,0,1-2,9.33q5.79-5.3,12.47-15.71a1.27,1.27,0,0,1,1.18-.69q2.85,0,3.14,1,.2.69-1,4.37t-1.82,6a41.52,41.52,0,0,0-1.47,8.59,12,12,0,0,0,.39,3.68,1.26,1.26,0,0,0,1.38,1q2.85-.39,5.5-3.63C345.8,536.09,345.93,536.19,345.93,536.64Z"/><path class="cls-1" d="M354.67,524.76a32.64,32.64,0,0,0-4,6.68,12.6,12.6,0,0,0-1.18,4.22q0,1.38.88,1.38,2.65,0,10.7-11.79,3.14-4,3.14.1-.2,2.56-.2,4.32,0,7.47,3.14,7.46,3.34,0,8.15-5.4c.2-.2.43-.06.69.39a10.67,10.67,0,0,1-2,2.41,18.15,18.15,0,0,1-4.27,3.09,9.31,9.31,0,0,1-3.88,1.38,6.16,6.16,0,0,1-2.11-.29q-3.64-1.28-3.63-10-3.93,6.19-5.7,7.86-2.75,2.56-4.52,2.55h-.29q-3.24-.49-3.24-4.37a18.89,18.89,0,0,1,2.5-8.64,32,32,0,0,1,6.63-8.59q4.12-3.83,8.25-3.83a8.14,8.14,0,0,1,3.83,1,3.33,3.33,0,0,1,1.67,3.09,2.11,2.11,0,0,1-1.87,2.41,4.42,4.42,0,0,0,.69-2.21,1.61,1.61,0,0,0-1-1.52,4,4,0,0,0-1.77-.49Q361.06,515.92,354.67,524.76Z"/><path class="cls-1" d="M388.75,533.3a9.81,9.81,0,0,1-.79-3.83,6.57,6.57,0,0,1,1.92-4.17q1.92-2.21,6.09-2.21t13.31,4.52a44.62,44.62,0,0,0,2.26-5.7h-1.37q-7.17,0-10.51-3.73a7.39,7.39,0,0,1-2-5,12.86,12.86,0,0,1,1.28-5.45,18.81,18.81,0,0,1-3.53-11.1q0-10.7,7.66-14.54a9,9,0,0,1,4.27-1q2.41,0,5.16,2.75,4.42,4.42,4.42,15.22a65.26,65.26,0,0,1-2.16,15.42,14.35,14.35,0,0,0,3.44-.49q3-16,7-23,5.4-9.82,10.51-9.82,4.42,0,6.09,6.19a20.39,20.39,0,0,1,.69,5.3,25,25,0,0,1-2.7,10.9,32,32,0,0,1-8.1,10.26A33.88,33.88,0,0,1,419,520.73a67.76,67.76,0,0,1-3.93,10.11,98,98,0,0,0,13.65,6.78q18.56,7.56,21.41-.2c.26-.59.52-.85.79-.79a.35.35,0,0,1,.2.34,1.75,1.75,0,0,1-.1.54,8.54,8.54,0,0,1-5.3,5.3,14,14,0,0,1-5,1.18A29.75,29.75,0,0,1,428,540.92a76.18,76.18,0,0,1-10.31-5.65l-3.63-2.55q-5,7.66-12.47,7.66a16,16,0,0,1-2.95-.29Q391.21,538.8,388.75,533.3Zm10.61,3.63H399c-.39,0-.52-.16-.39-.49s.08-.29.25-.29h.44q5.2,0,8.94-6.58a42.17,42.17,0,0,0-7.12-2.7,17.11,17.11,0,0,0-3.09-.34,6.81,6.81,0,0,0-5.25,1.87,5.34,5.34,0,0,0-1.72,3.44,7,7,0,0,0,.79,3.14q2.36,4.12,8.94,4.12a11.59,11.59,0,0,0,7.37-2.16,12.66,12.66,0,0,0,3.93-4.32l.49-.88q-1.47-.79-3.44-1.77Q404.86,536.94,399.36,536.94Zm16-37.81q0-12.77-5.7-16.11a7.16,7.16,0,0,0-3.68-1,7.27,7.27,0,0,0-4.47,2.06q-4.42,3.93-4.42,11a25,25,0,0,0,2.75,11.1,13.6,13.6,0,0,1,4.22-4.42c.46-.33.74-.41.83-.24s.08.28,0,.34a12.57,12.57,0,0,0-4.22,5.89,14,14,0,0,0,5.5,4.86,16.87,16.87,0,0,0,7.37,1.91A75,75,0,0,0,415.37,499.13Zm-15.13,11.49a8.25,8.25,0,0,0,3.49,6.68A13,13,0,0,0,412,520q.49-1.57,1.28-4.71a17.44,17.44,0,0,1-13-5.79A6.6,6.6,0,0,0,400.24,510.62Zm12.47,11.2q-1.38,3.83-2.55,6.29l3.34,1.77a77.51,77.51,0,0,0,3.14-8.74Q415.27,521.42,412.72,521.81Zm5.3-6.87a14.16,14.16,0,0,1-3.44.39q-.79,3.15-1.28,4.71,1.77-.2,3.83-.59Zm19.25-12.28a31,31,0,0,0,3-12.87q0-6.19-2.95-6.19-5.3,0-13.06,21-1.38,3.64-2.75,8.15a20.83,20.83,0,0,0,9-9.72q.2-.49.54-.2c.23.2.28.36.15.49q-3.73,7.56-10,10.51l-1.67,4.91Q431.67,515.43,437.27,502.66Z"/><path class="cls-1" d="M456.22,537q2.95,0,7.66-5.3l.59.39a9.94,9.94,0,0,1-2,2.41,17,17,0,0,1-4.27,3.14,9.25,9.25,0,0,1-3.83,1.33,6.18,6.18,0,0,1-2.11-.29q-1.77-.59-2.8-3.44a20.56,20.56,0,0,1-1.23-5.35,13,13,0,0,1-.1-2.6q-.79,1.18-1.42,2.31T445.22,532q-.88,1.28-2,2.55-3.44,4.52-5.89,4.52h-.29q-3.73-.59-3.73-5.3,0-7.17,7.17-17.88a2,2,0,0,1,1.77-.88,12.68,12.68,0,0,1,2.26.2q1.47.59,1.38,1.08a33.14,33.14,0,0,0-5,7.07q-4.52,8.25-4.52,11.69,0,1.87,1.23,1.87a4.65,4.65,0,0,0,2.85-1.42,18.3,18.3,0,0,0,2.7-2.9l2-2.7q.88-1.23,2.16-3.24t2-3a6.43,6.43,0,0,1,1.42-1.52c.49-.36.88-.39,1.18-.1a2.25,2.25,0,0,1,.39,1.67c0,.82,0,1.52,0,2.11Q452.2,537,456.22,537Z"/><path class="cls-1" d="M464.67,540.47q-4.71,0-4.71-6.68a19.42,19.42,0,0,1,.59-4.52,30.13,30.13,0,0,1,7.17-13.06q2.45-2.55,4.57-2.55a5.72,5.72,0,0,1,3.88,1.57,3.69,3.69,0,0,1,.93,1.52,2.42,2.42,0,0,1,.15,1.82q-.29.69-.88-.59a2.24,2.24,0,0,0-2.16-1.08q-2.75,0-5.6,4.52-5.2,8.35-5.2,13.26a5.08,5.08,0,0,0,.74,2.75,2.07,2.07,0,0,0,1.72,1.18q6,0,12.57-7.56.69-.69.69-.1a4.13,4.13,0,0,1-1.13,2,25.12,25.12,0,0,1-4.17,3.63Q468.79,540.47,464.67,540.47Z"/><path class="cls-1" d="M484.21,533.5q0,2.95,1.77,2.95,1,0,4.86-3.19t4.17-3.49q.29-.3.49-.15a.4.4,0,0,1,.2.29.8.8,0,0,1-.1.34q-1.47,2.46-6.19,5.89-3.14,2.56-5.3,2.55-3.34,0-3.34-5.7,0-1.08.2-3.09t3.14-12.42q.2-.79,2.21-.79t2,1.13a8.33,8.33,0,0,1-.74,2.95q-.74,1.82-1.72,2-.49.1-1.08,4.91T484.21,533.5Zm7.56-24.95c.46,0,.69.15.69.44s-.39.9-1.18,1.82q-2.56,3.15-5,1.18-.39-.3-.1-.59Q489.61,508.56,491.77,508.55Z"/><path class="cls-1" d="M498.16,540.47q-4.71,0-4.71-6.68a19.42,19.42,0,0,1,.59-4.52,30.13,30.13,0,0,1,7.17-13.06q2.45-2.55,4.57-2.55a5.72,5.72,0,0,1,3.88,1.57,3.69,3.69,0,0,1,.93,1.52,2.42,2.42,0,0,1,.15,1.82q-.29.69-.88-.59a2.24,2.24,0,0,0-2.16-1.08q-2.75,0-5.6,4.52-5.2,8.35-5.2,13.26a5.08,5.08,0,0,0,.74,2.75,2.07,2.07,0,0,0,1.72,1.18q6,0,12.57-7.56.69-.69.69-.1a4.13,4.13,0,0,1-1.13,2,25.12,25.12,0,0,1-4.17,3.63Q502.28,540.47,498.16,540.47Z"/><path class="cls-1" d="M522.32,524.76a32.64,32.64,0,0,0-4,6.68,12.6,12.6,0,0,0-1.18,4.22q0,1.38.88,1.38,2.65,0,10.7-11.79,3.14-4,3.14.1-.2,2.56-.2,4.32,0,7.47,3.14,7.46,3.34,0,8.15-5.4c.2-.2.43-.06.69.39a10.67,10.67,0,0,1-2,2.41,18.15,18.15,0,0,1-4.27,3.09,9.31,9.31,0,0,1-3.88,1.38,6.16,6.16,0,0,1-2.11-.29q-3.64-1.28-3.63-10-3.93,6.19-5.7,7.86-2.75,2.56-4.52,2.55h-.29q-3.24-.49-3.24-4.37a18.89,18.89,0,0,1,2.5-8.64,32,32,0,0,1,6.63-8.59q4.12-3.83,8.25-3.83a8.14,8.14,0,0,1,3.83,1,3.33,3.33,0,0,1,1.67,3.09,2.11,2.11,0,0,1-1.87,2.41,4.42,4.42,0,0,0,.69-2.21,1.61,1.61,0,0,0-1-1.52,4,4,0,0,0-1.77-.49Q528.7,515.92,522.32,524.76Z"/></svg>